<?xml version="1.0" encoding="UTF-8"?><svg id="Layer_2" xmlns="http://www.w3.org/2000/svg" xmlns:xlink="http://www.w3.org/1999/xlink" viewBox="0 0 806 621"><defs><style>.cls-1,.cls-2,.cls-3,.cls-4,.cls-5,.cls-6,.cls-7{fill:none;}.cls-8{clip-path:url(#clippath);}.cls-9{fill:#0051d3;}.cls-10{fill:#00b7ff;}.cls-11{fill:#006ae8;}.cls-12{fill:#eef5ff;}.cls-13{fill:#fff;}.cls-14{fill:#ffe600;}.cls-15{fill:#8174f2;}.cls-16{fill:#3252be;}.cls-17{fill:#d5f6ff;}.cls-18{fill:#05b3ff;}.cls-19{fill:#62de7f;}.cls-20{fill:#2b2bb2;}.cls-21{fill:#2989fc;}.cls-22{fill:#258efc;}.cls-23{fill:#76c1ff;}.cls-2{stroke:#006ae8;stroke-width:5px;}.cls-3{stroke-width:2px;}.cls-3,.cls-4{stroke:#000;}.cls-3,.cls-4,.cls-5,.cls-6,.cls-7{stroke-miterlimit:10;}.cls-5{stroke:#0357ff;}.cls-6{stroke:#2989fc;}.cls-7{stroke:#d5f6ff;}</style><clipPath id="clippath"><rect class="cls-1" width="806" height="621"/></clipPath></defs><g id="Layer_2-2"><g class="cls-8"><g id="Solution_-_Cloud_Data_Warehouses-2"><g id="Group_17541"><path id="Path_180637" class="cls-11" d="m377.93,129.66c-.11-.61-.63-1.05-1.25-1.06h-4.38c-.57,0-1.07-.4-1.22-.95-1.09-4.1-2.67-8.06-4.72-11.77-.29-.52-.21-1.16.2-1.59l3.1-3.19c.43-.44.49-1.12.17-1.64-4.13-6.46-9.52-12.03-15.84-16.36-.5-.34-1.17-.27-1.59.17l-3.09,3.19c-.4.41-1.04.5-1.54.2-3.58-2.11-7.41-3.75-11.4-4.88-.55-.17-.93-.68-.92-1.26v-4.52c0-.62-.42-1.15-1.02-1.29-7.37-1.55-14.99-1.55-22.36,0-.6.13-1.03.67-1.02,1.29v4.52c0,.58-.37,1.09-.92,1.26-4,1.13-7.83,2.77-11.41,4.88-.5.3-1.13.21-1.53-.21l-3.1-3.19c-.41-.44-1.09-.51-1.59-.17-6.33,4.33-11.72,9.89-15.85,16.35-.33.52-.26,1.19.17,1.63l3.09,3.2c.41.43.49,1.07.2,1.58-2.05,3.71-3.64,7.67-4.73,11.77-.14.56-.65.95-1.22.95h-4.38c-.61,0-1.14.45-1.24,1.06-1.5,7.62-1.5,15.46,0,23.09.11.6.63,1.05,1.24,1.06h4.38c.58,0,1.08.39,1.22.95,1.09,4.1,2.67,8.06,4.72,11.77.29.51.21,1.16-.2,1.58l-3.09,3.2c-.43.44-.5,1.12-.17,1.64,4.13,6.46,9.52,12.03,15.84,16.36.5.34,1.17.26,1.59-.17l3.1-3.2c.4-.42,1.04-.5,1.53-.2,3.58,2.11,7.41,3.75,11.4,4.88.55.17.93.68.92,1.26v4.52c0,.62.42,1.16,1.03,1.29,7.37,1.55,14.99,1.55,22.36,0,.6-.13,1.03-.67,1.03-1.29v-4.51c0-.58.37-1.09.92-1.26,3.99-1.13,7.83-2.77,11.41-4.88.5-.3,1.13-.21,1.53.21l3.09,3.2c.42.44,1.09.51,1.59.17,6.33-4.33,11.72-9.89,15.85-16.35.33-.52.26-1.2-.17-1.64l-3.09-3.2c-.41-.43-.49-1.07-.2-1.58,2.05-3.72,3.63-7.67,4.72-11.77.14-.56.64-.95,1.22-.95h4.38c.62,0,1.14-.45,1.25-1.06,1.5-7.62,1.5-15.46,0-23.08h0Zm-54.7,23.82c-6.79.22-12.47-5.11-12.69-11.9-.22-6.79,5.11-12.47,11.9-12.69,6.79-.22,12.47,5.11,12.69,11.9,0,.13,0,.26,0,.4.11,6.68-5.22,12.19-11.9,12.29,0,0,0,0,0,0h0Z"/><g id="Clouds-9"><path id="Path_180638" class="cls-17" d="m381.35,95.31h.21c2.88-31.57,30.81-54.82,62.38-51.94,22.57,2.06,41.81,17.21,49.12,38.66,20.92,2.07,36.21,20.71,34.14,41.63-1.92,19.46-18.28,34.29-37.83,34.32h-108.02c-17.28.57-31.74-12.98-32.31-30.25-.57-17.28,12.98-31.74,30.25-32.31.08,0,.16,0,.24,0,.61-.02,1.21-.02,1.82,0v-.11Z"/></g><g id="Clouds-10"><path id="Path_180639" class="cls-18" d="m55,132.23h.36c4.9-53.9,52.57-93.62,106.47-88.72,38.56,3.51,71.45,29.39,83.91,66.06,35.73,3.51,61.85,35.31,58.34,71.04-3.27,33.26-31.22,58.62-64.64,58.65H55C25.5,240.22.8,217.09-.16,187.59c-.97-29.5,22.17-54.2,51.67-55.16.13,0,.26,0,.38-.01,1.04-.03,2.07-.03,3.11,0v-.18Z"/></g><g id="Group_17530"><path id="Path_180640" class="cls-10" d="m405,158.05v13.2c0,4.46,14.04,8.07,31.36,8.07s31.36-3.61,31.36-8.07v-13.2"/><ellipse id="Ellipse_2174" class="cls-11" cx="436.36" cy="158.05" rx="31.36" ry="8.07"/><path id="Path_180641" class="cls-10" d="m405,140.08v13.2c0,4.46,14.04,8.07,31.36,8.07s31.36-3.61,31.36-8.07v-13.2"/><ellipse id="Ellipse_2175" class="cls-11" cx="436.36" cy="140.08" rx="31.36" ry="8.07"/><path id="Path_180642" class="cls-10" d="m405,122.11v13.2c0,4.46,14.04,8.07,31.36,8.07s31.36-3.61,31.36-8.07v-13.2"/><ellipse id="Ellipse_2176" class="cls-11" cx="436.36" cy="122.11" rx="31.36" ry="8.07"/><g id="Group_17529"><path id="Path-8-20" class="cls-6" d="m431.39,121.85h9.93"/><path id="Path-9-20" class="cls-6" d="m436.36,126.81v-9.93"/></g><circle id="Ellipse_2177" class="cls-11" cx="463.04" cy="135" r="1.5"/><circle id="Ellipse_2178" class="cls-11" cx="463.04" cy="153.06" r="1.5"/><circle id="Ellipse_2179" class="cls-11" cx="463.04" cy="170.88" r="1.5"/></g><g id="Group_17532"><path id="Path_180643" class="cls-16" d="m78.29,168.73v13.2c0,4.46,14.04,8.07,31.36,8.07s31.36-3.61,31.36-8.07v-13.2"/><ellipse id="Ellipse_2180" class="cls-19" cx="109.64" cy="168.73" rx="31.36" ry="8.07"/><path id="Path_180644" class="cls-16" d="m78.29,150.76v13.2c0,4.46,14.04,8.07,31.36,8.07s31.36-3.61,31.36-8.07v-13.2"/><ellipse id="Ellipse_2181" class="cls-19" cx="109.64" cy="150.76" rx="31.36" ry="8.07"/><path id="Path_180645" class="cls-16" d="m78.29,132.79v13.2c0,4.46,14.04,8.07,31.36,8.07s31.36-3.61,31.36-8.07v-13.2"/><ellipse id="Ellipse_2182" class="cls-19" cx="109.64" cy="132.79" rx="31.36" ry="8.07"/><g id="Group_17531"><path id="Path-8-21" class="cls-5" d="m104.67,132.53h9.93"/><path id="Path-9-21" class="cls-5" d="m109.64,137.49v-9.93"/></g><circle id="Ellipse_2183" class="cls-22" cx="136.33" cy="145.68" r="1.5"/><circle id="Ellipse_2184" class="cls-22" cx="136.33" cy="163.74" r="1.5"/><circle id="Ellipse_2185" class="cls-22" cx="136.33" cy="181.56" r="1.5"/></g><g id="Group_17534"><path id="Path_180646" class="cls-16" d="m163.71,168.73v13.2c0,4.46,14.04,8.07,31.36,8.07s31.36-3.61,31.36-8.07v-13.2"/><ellipse id="Ellipse_2186" class="cls-19" cx="195.07" cy="168.73" rx="31.36" ry="8.07"/><path id="Path_180647" class="cls-16" d="m163.71,150.76v13.2c0,4.46,14.04,8.07,31.36,8.07s31.36-3.61,31.36-8.07v-13.2"/><ellipse id="Ellipse_2187" class="cls-19" cx="195.07" cy="150.76" rx="31.36" ry="8.07"/><path id="Path_180648" class="cls-16" d="m163.71,132.79v13.2c0,4.46,14.04,8.07,31.36,8.07s31.36-3.61,31.36-8.07v-13.2"/><ellipse id="Ellipse_2188" class="cls-19" cx="195.07" cy="132.79" rx="31.36" ry="8.07"/><g id="Group_17533"><path id="Path-8-22" class="cls-5" d="m190.1,132.53h9.93"/><path id="Path-9-22" class="cls-5" d="m195.07,137.49v-9.93"/></g><circle id="Ellipse_2189" class="cls-22" cx="221.76" cy="145.68" r="1.5"/><circle id="Ellipse_2190" class="cls-22" cx="221.76" cy="163.74" r="1.5"/><circle id="Ellipse_2191" class="cls-22" cx="221.76" cy="181.56" r="1.5"/></g><g id="Group_17536"><path id="Path_180649" class="cls-16" d="m121,250.65v13.2c0,4.46,14.04,8.07,31.36,8.07s31.36-3.61,31.36-8.07v-13.2"/><ellipse id="Ellipse_2192" class="cls-19" cx="152.36" cy="250.65" rx="31.36" ry="8.07"/><path id="Path_180650" class="cls-16" d="m121,232.68v13.2c0,4.46,14.04,8.07,31.36,8.07s31.36-3.61,31.36-8.07v-13.2"/><ellipse id="Ellipse_2193" class="cls-19" cx="152.36" cy="232.68" rx="31.36" ry="8.07"/><path id="Path_180651" class="cls-16" d="m121,214.71v13.2c0,4.46,14.04,8.07,31.36,8.07s31.36-3.61,31.36-8.07v-13.2"/><ellipse id="Ellipse_2194" class="cls-19" cx="152.36" cy="214.71" rx="31.36" ry="8.07"/><g id="Group_17535"><path id="Path-8-23" class="cls-5" d="m147.39,214.44h9.93"/><path id="Path-9-23" class="cls-5" d="m152.36,219.41v-9.93"/></g><circle id="Ellipse_2195" class="cls-22" cx="179.04" cy="227.6" r="1.5"/><circle id="Ellipse_2196" class="cls-22" cx="179.04" cy="245.66" r="1.5"/><circle id="Ellipse_2197" class="cls-22" cx="179.04" cy="263.47" r="1.5"/></g><circle id="Ellipse_2198" class="cls-23" cx="43" cy="328" r="16"/><circle id="Ellipse_2199" class="cls-19" cx="68" cy="355" r="7"/><path id="Path_180652" class="cls-6" d="m151.28,274.12c10.83,87.54,207.27-3.64,205.96,94.2"/><path id="Path_180653" class="cls-6" d="m437,179c.07,88.63-53.36,99.87-52.07,187.96"/><circle id="Ellipse_2200" class="cls-14" cx="437" cy="179" r="11"/><circle id="Ellipse_2201" class="cls-14" cx="152" cy="273" r="11"/><g id="Ellipse_2202"><circle class="cls-1" cx="521" cy="209" r="21"/><circle class="cls-2" cx="521" cy="209" r="18.5"/></g><circle id="Ellipse_2203" class="cls-20" cx="494" cy="230" r="6"/><circle id="Ellipse_2204" class="cls-15" cx="212" cy="62" r="22"/><circle id="Ellipse_2205" class="cls-20" cx="293" cy="73" r="6"/><circle id="Ellipse_2206" class="cls-11" cx="250.5" cy="26.5" r="9.5"/><rect id="Rectangle_14859" class="cls-17" x="636.9" y="488.11" width="169.51" height="94.53"/><ellipse id="Ellipse_2207" class="cls-15" cx="797.3" cy="496.29" rx="1.43" ry="1.47"/><ellipse id="Ellipse_2208" class="cls-21" cx="791.51" cy="496.29" rx="1.43" ry="1.47"/><ellipse id="Ellipse_2209" class="cls-9" cx="785.72" cy="496.29" rx="1.43" ry="1.47"/><path id="Path_1539-3" class="cls-4" d="m612,526v-43.54c0-4.27,3.46-7.73,7.73-7.74h149.7c4.27,0,7.74,3.46,7.74,7.73h0v102.55c0,5.41-4.34,9.82-9.75,9.9l-52.83.81"/><path id="Path_1540-9" class="cls-12" d="m674.58,595.72l-9.33,25.33h58.68l-9.34-25.33h-75.14"/><rect id="Rectangle_14860" class="cls-13" x="646.88" y="504.92" width="151.85" height="70"/><path id="Path_1540-10" class="cls-4" d="m714.59,595.72h-75.14"/><g id="Group_17539"><line id="Line_1916" class="cls-7" x1="709.8" y1="438.61" x2="701.14" y2="438.5"/><g id="Group_17537"><line id="Line_1917" class="cls-7" x1="704.32" y1="444.19" x2="712.68" y2="444.29"/><line id="Line_1918" class="cls-7" x1="715.17" y1="444.33" x2="723.53" y2="444.43"/><line id="Line_1919" class="cls-7" x1="704.25" y1="449.84" x2="721.61" y2="450.06"/><line id="Line_1920" class="cls-7" x1="724.1" y1="450.09" x2="751.98" y2="450.44"/><line id="Line_1921" class="cls-7" x1="704.18" y1="455.49" x2="717.24" y2="455.65"/><line id="Line_1922" class="cls-7" x1="719.73" y1="455.69" x2="749.12" y2="456.06"/><line id="Line_1923" class="cls-7" x1="704.11" y1="461.14" x2="732.22" y2="461.49"/><line id="Line_1924" class="cls-7" x1="734.71" y1="461.53" x2="762.59" y2="461.88"/><line id="Line_1925" class="cls-7" x1="704.04" y1="466.79" x2="725.28" y2="467.06"/><line id="Line_1926" class="cls-7" x1="727.77" y1="467.09" x2="749.86" y2="467.37"/><line id="Line_1927" class="cls-7" x1="752.35" y1="467.4" x2="767.21" y2="467.59"/></g><line id="Line_1928" class="cls-7" x1="709.37" y1="472.51" x2="700.71" y2="472.4"/><line id="Line_1929" class="cls-7" x1="709.3" y1="478.16" x2="700.64" y2="478.05"/><g id="Group_17538"><line id="Line_1930" class="cls-7" x1="703.82" y1="483.74" x2="721.41" y2="483.96"/><line id="Line_1931" class="cls-7" x1="723.9" y1="483.99" x2="730.5" y2="484.08"/><line id="Line_1932" class="cls-7" x1="732.99" y1="484.11" x2="738.57" y2="484.18"/><line id="Line_1933" class="cls-7" x1="703.75" y1="489.39" x2="718.4" y2="489.57"/><line id="Line_1934" class="cls-7" x1="720.89" y1="489.61" x2="727.55" y2="489.69"/></g><line id="Line_1935" class="cls-7" x1="709.09" y1="495.11" x2="700.42" y2="495"/></g><rect id="Rectangle_14861" class="cls-19" x="655" y="512" width="84" height="56"/><rect id="Rectangle_14862" class="cls-15" x="745" y="512" width="48" height="25"/><rect id="Rectangle_14863" class="cls-11" x="745" y="543" width="48" height="25"/><path id="Path_180654" class="cls-11" d="m569.41,547.08c.1-.52.55-.9,1.09-.91h3.82c.5,0,.94-.33,1.07-.82.95-3.52,2.34-6.9,4.13-10.07.25-.44.18-.99-.17-1.35l-2.71-2.73c-.37-.37-.43-.96-.15-1.4,3.63-5.55,8.33-10.31,13.84-14,.44-.29,1.02-.23,1.39.15l2.7,2.73c.35.36.91.43,1.34.18,3.13-1.81,6.48-3.21,9.96-4.18.48-.14.81-.58.81-1.08v-3.86c0-.53.38-.99.9-1.1,3.21-.66,6.49-.99,9.77-.99,3.28,0,6.56.33,9.77.99.52.11.9.57.9,1.1v3.86c0,.5.33.94.81,1.08,3.48.96,6.83,2.37,9.96,4.17.43.26.99.18,1.34-.18l2.7-2.73c.37-.38.95-.44,1.39-.15,5.51,3.68,10.22,8.44,13.85,13.99.29.44.23,1.03-.15,1.4l-2.7,2.73c-.35.36-.43.92-.17,1.36,1.79,3.17,3.18,6.55,4.13,10.07.13.48.57.82,1.07.81h3.82c.53,0,.99.38,1.09.91.66,3.25.98,6.56.98,9.88,0,3.32-.33,6.62-.98,9.88-.1.52-.56.9-1.09.91h-3.82c-.5,0-.94.33-1.07.82-.95,3.52-2.34,6.9-4.13,10.07-.25.44-.18.99.17,1.35l2.71,2.73c.37.37.43.96.15,1.4-3.63,5.55-8.33,10.31-13.84,14-.44.29-1.02.23-1.39-.15l-2.71-2.73c-.35-.36-.91-.43-1.34-.18-3.13,1.81-6.48,3.21-9.96,4.18-.48.14-.81.58-.81,1.08v3.86c0,.53-.38.99-.9,1.1-3.21.66-6.49.99-9.77.99-3.28,0-6.56-.33-9.77-.99-.52-.11-.9-.57-.9-1.1v-3.86c0-.5-.33-.94-.81-1.08-3.48-.96-6.83-2.37-9.96-4.17-.43-.26-.99-.18-1.34.18l-2.7,2.73c-.37.38-.95.44-1.39.15-5.51-3.69-10.22-8.44-13.85-13.99-.29-.44-.23-1.03.15-1.4l2.7-2.73c.35-.36.43-.92.17-1.36-1.79-3.17-3.18-6.55-4.13-10.07-.13-.48-.57-.82-1.07-.81h-3.82c-.53,0-.99-.38-1.09-.91-.65-3.25-.98-6.56-.98-9.88,0-3.32.33-6.62.98-9.87Zm47.79,28.51c10.24-.06,18.5-8.4,18.45-18.65.05-10.24-8.2-18.59-18.45-18.65-10.24.06-18.5,8.4-18.45,18.65-.05,10.24,8.2,18.59,18.45,18.65h0Z"/><path id="Path_180655" class="cls-6" d="m357.24,417.04c-3,169.68,338.25-85.96,343.18,83.87"/><path id="Path_180656" class="cls-6" d="m384.9,417.04c1.69,70.64,75.11,152.96,228.74,139.74"/><g id="Group_17540"><rect id="Rectangle_14864" class="cls-14" x="342" y="370" width="58" height="44"/><rect id="Rectangle_14865" class="cls-14" x="349" y="363" width="15" height="15"/><rect id="Rectangle_14866" class="cls-14" x="378" y="363" width="15" height="15"/><rect id="Rectangle_14867" class="cls-14" x="349" y="407" width="15" height="14"/><rect id="Rectangle_14868" class="cls-14" x="378" y="407" width="15" height="14"/><line id="Line_1936" class="cls-3" x1="371" y1="378" x2="371" y2="407"/><line id="Line_1937" class="cls-3" x1="356" y1="392" x2="385" y2="392"/></g><g id="Group_823-7"><circle id="Ellipse_386-7" class="cls-14" cx="617.21" cy="556.95" r="12.93"/></g><g id="Group_823-8"><circle id="Ellipse_386-8" class="cls-14" cx="701.21" cy="504.65" r="7.64"/></g></g></g></g></g></svg>