<svg xmlns="http://www.w3.org/2000/svg" xmlns:xlink="http://www.w3.org/1999/xlink" width="470.534" height="330" viewBox="0 0 470.534 330"><defs><clipPath id="a"><rect width="470" height="330" transform="translate(3124.142 74.961)" fill="#76c1ff"/></clipPath></defs><g transform="translate(-3124.142 -74.961)"><rect width="470" height="330" transform="translate(3124.676 74.961)" fill="#dcecff"/><g clip-path="url(#a)"><ellipse cx="191.546" cy="191.546" rx="191.546" ry="191.546" transform="translate(3166.735 239.294)" fill="#9f9cf9"/><circle cx="153.44" cy="153.44" r="153.44" transform="translate(3204.841 277.4)" fill="#9f9cf9"/><path d="M3220.245,271.055H3115.663v-1h104.582a17.536,17.536,0,0,0,17.536-17.536V75.031h1V252.519a18.521,18.521,0,0,1-18.536,18.536Z" transform="translate(5.907 -5.603)" fill="#0357ff"/><circle cx="47.054" cy="47.054" r="47.054" transform="translate(3439.785 145.186)" fill="#9f9cf9"/><circle cx="47.054" cy="47.054" r="47.054" transform="translate(3311.367 52.256)" fill="#9f9cf9"/><circle cx="47.054" cy="47.054" r="47.054" transform="translate(3190.709 145.186)" fill="#9f9cf9"/><ellipse cx="173.611" cy="173.612" rx="173.611" ry="173.612" transform="translate(3184.669 257.228)" fill="#eef5ff"/><path d="M34.993-.5A35.5,35.5,0,0,1,48.808,67.7,35.5,35.5,0,0,1,21.177,2.289,35.271,35.271,0,0,1,34.993-.5Zm0,69.985A34.5,34.5,0,0,0,48.419,3.21,34.5,34.5,0,0,0,21.567,66.775,34.276,34.276,0,0,0,34.993,69.485Z" transform="translate(3323.009 160.592)" fill="#fff"/><rect width="65.211" height="41.907" transform="translate(3438.279 173.356)" fill="#ebebff"/><circle cx="0.612" cy="0.612" r="0.612" transform="translate(3447.324 175.486)" fill="#9f9cf9"/><circle cx="0.612" cy="0.612" r="0.612" transform="translate(3444.854 175.486)" fill="#9f9cf9"/><circle cx="0.612" cy="0.612" r="0.612" transform="translate(3442.383 175.486)" fill="#9f9cf9"/><path d="M65.248.5H0v-1H65.248Z" transform="translate(3438.242 178.911)"/><path d="M3436.756,217.973h-1V172.414a3.773,3.773,0,0,1,3.759-3.779h63.079a3.774,3.774,0,0,1,3.76,3.779v17.772h-1V172.414a2.773,2.773,0,0,0-2.76-2.779h-63.079a2.772,2.772,0,0,0-2.759,2.779Z" fill="#0357ff"/><path d="M-.5-.5H70.744V4.542H-.5ZM69.744.5H.5V3.542H69.744Z" transform="translate(3429.394 218.129)" fill="#0357ff"/><path d="M3451.882,207.123l-.666-.746,12.861-11.477.333.368,6.4,7.074,18.4-15.192.637.771-19.141,15.8L3464,196.306Z"/><path d="M3489.657,195.361l-.5-7.419-7.684-.084.011-1,8.609.094.562,8.342Z"/><path d="M3185.165,184.827v7.381c0,2.492,7.851,4.512,17.535,4.512s17.535-2.02,17.535-4.512v-7.381" fill="#8174f2"/><ellipse cx="17.535" cy="4.512" rx="17.535" ry="4.512" transform="translate(3185.165 180.315)" fill="#5122b9"/><path d="M3185.165,174.777v7.382c0,2.492,7.851,4.512,17.535,4.512s17.535-2.02,17.535-4.512v-7.382" fill="#8174f2"/><ellipse cx="17.535" cy="4.512" rx="17.535" ry="4.512" transform="translate(3185.165 170.266)" fill="#5122b9"/><path d="M3185.165,164.728v7.382c0,2.492,7.851,4.512,17.535,4.512s17.535-2.02,17.535-4.512v-7.382" fill="#8174f2"/><ellipse cx="17.535" cy="4.512" rx="17.535" ry="4.512" transform="translate(3185.165 160.217)" fill="#ffd000"/><path d="M3205.476,165.081h-5.556v-1h5.556Z"/><path d="M3203.2,167.359h-1V161.8h1Z"/><circle cx="0.839" cy="0.839" r="0.839" transform="translate(3216.784 171.097)" fill="#006ae8"/><circle cx="0.839" cy="0.839" r="0.839" transform="translate(3216.784 181.196)" fill="#006ae8"/><circle cx="0.839" cy="0.839" r="0.839" transform="translate(3216.784 191.159)" fill="#006ae8"/><path d="M1.395-.5H25.878a1.9,1.9,0,0,1,1.895,1.895V49.659a1.9,1.9,0,0,1-1.895,1.895H1.395A1.9,1.9,0,0,1-.5,49.659V1.395A1.9,1.9,0,0,1,1.395-.5ZM25.878,50.553a.9.9,0,0,0,.895-.895V1.395A.9.9,0,0,0,25.878.5H1.395A.9.9,0,0,0,.5,1.395V49.659a.9.9,0,0,0,.895.895Z" transform="translate(3376.39 389.285) rotate(180)" fill="#0357ff"/><circle cx="0.739" cy="0.739" r="0.739" transform="translate(3362.046 386.15)" fill="#161616"/><rect width="24.973" height="41.531" transform="translate(3375.24 384.1) rotate(180)" fill="#ebebff"/><rect width="19.256" height="24" transform="translate(3353.126 349.952)" fill="#50dd50"/><path d="M3361.379,365.412l-3.653-3.653.707-.707,2.946,2.946,5.7-5.695.707.707Z"/><path d="M1.677-.5H31.12A2.18,2.18,0,0,1,33.3,1.677V59.718A2.18,2.18,0,0,1,31.12,61.9H1.677A2.18,2.18,0,0,1-.5,59.718V1.677A2.18,2.18,0,0,1,1.677-.5ZM31.12,60.9A1.179,1.179,0,0,0,32.3,59.718V1.677A1.179,1.179,0,0,0,31.12.5H1.677A1.179,1.179,0,0,0,.5,1.677V59.718A1.179,1.179,0,0,0,1.677,60.9Z" transform="translate(3434.101 357.724) rotate(180)" fill="#0357ff"/><circle cx="0.888" cy="0.888" r="0.888" transform="translate(3416.851 353.954)" fill="#161616"/><rect width="30.032" height="49.944" transform="translate(3432.718 351.489) rotate(180)" fill="#ebebff"/><rect width="23.156" height="28.862" transform="translate(3406.124 310.424)" fill="#50dd50"/><path d="M3416.049,328.872l-4.321-4.321.707-.707,3.614,3.614,6.92-6.92.707.707Z"/><path d="M1.058-.5H52.937a1.559,1.559,0,0,1,1.558,1.558V69.727a1.559,1.559,0,0,1-1.558,1.558H1.058A1.559,1.559,0,0,1-.5,69.727V1.058A1.559,1.559,0,0,1,1.058-.5ZM52.937,70.284a.558.558,0,0,0,.558-.558V1.058A.558.558,0,0,0,52.937.5H1.058A.558.558,0,0,0,.5,1.058V69.727a.558.558,0,0,0,.558.558Z" transform="translate(3315.647 373.023) rotate(180)" fill="#0357ff"/><circle cx="0.93" cy="0.93" r="0.93" transform="translate(3287.719 368.179)" fill="#161616"/><rect width="50.118" height="58.834" transform="translate(3313.683 366.194) rotate(180)" fill="#ebebff"/><rect width="30.977" height="30.977" transform="translate(3273.161 322.142)" fill="#50dd50"/><path d="M3287.435,342.766l-5.661-5.661.707-.707,4.954,4.954,9.377-9.377.707.707Z"/><rect width="16.465" height="20.581" rx="2.283" transform="translate(3319.583 319.805)" fill="#50dd50"/><path d="M3333.461,349.119h-11.291v-8.733h1v7.733h9.291v-7.733h1Z" fill="#0357ff"/><path d="M3333.461,319.805h-1v-7.733h-9.291v7.733h-1v-8.733h11.291Z" fill="#0357ff"/><path d="M3326.563,333.637l-3.08-3.08.707-.707,2.374,2.374,5.152-5.142.707.708Z"/><rect width="67.31" height="43.256" transform="translate(3214.041 172.751)" fill="#ebebff"/><circle cx="0.632" cy="0.632" r="0.632" transform="translate(3223.377 174.95)" fill="#9f9cf9"/><circle cx="0.632" cy="0.632" r="0.632" transform="translate(3220.827 174.95)" fill="#9f9cf9"/><circle cx="0.632" cy="0.632" r="0.632" transform="translate(3218.277 174.95)" fill="#9f9cf9"/><path d="M67.349.5H0v-1H67.349Z" transform="translate(3214.002 178.485)"/><path d="M3270.514,193.648a.334.334,0,0,0-.326-.272h-1.149a.331.331,0,0,1-.32-.245,13.145,13.145,0,0,0-1.239-3.025.34.34,0,0,1,.052-.407l.812-.821a.337.337,0,0,0,.044-.421,14.792,14.792,0,0,0-4.157-4.2.329.329,0,0,0-.417.044l-.812.821a.331.331,0,0,1-.4.052,12.876,12.876,0,0,0-2.993-1.254.335.335,0,0,1-.242-.324v-1.16a.338.338,0,0,0-.269-.331,14.621,14.621,0,0,0-5.869,0,.336.336,0,0,0-.269.33v1.161a.333.333,0,0,1-.242.323,12.916,12.916,0,0,0-2.993,1.253.331.331,0,0,1-.4-.052l-.812-.822a.328.328,0,0,0-.416-.044,14.812,14.812,0,0,0-4.16,4.2.337.337,0,0,0,.044.421l.812.821a.341.341,0,0,1,.052.408,13.175,13.175,0,0,0-1.241,3.025.33.33,0,0,1-.32.244h-1.148a.335.335,0,0,0-.327.272,15.067,15.067,0,0,0,0,5.933.335.335,0,0,0,.327.272h1.148a.332.332,0,0,1,.32.245,13.2,13.2,0,0,0,1.24,3.026.34.34,0,0,1-.052.407l-.813.821a.339.339,0,0,0-.044.421,14.841,14.841,0,0,0,4.158,4.2.328.328,0,0,0,.416-.044l.813-.821a.333.333,0,0,1,.4-.053,12.865,12.865,0,0,0,2.992,1.255.333.333,0,0,1,.243.323v1.161a.336.336,0,0,0,.269.33,14.6,14.6,0,0,0,5.87,0,.338.338,0,0,0,.269-.331v-1.16a.335.335,0,0,1,.243-.324,12.846,12.846,0,0,0,2.993-1.253.333.333,0,0,1,.4.053l.812.821a.329.329,0,0,0,.416.045,14.818,14.818,0,0,0,4.16-4.2.339.339,0,0,0-.044-.421l-.812-.821a.34.34,0,0,1-.052-.407,13.193,13.193,0,0,0,1.241-3.025.332.332,0,0,1,.32-.245h1.148a.335.335,0,0,0,.327-.272,15.074,15.074,0,0,0,0-5.932Zm-14.357,8.564a5.6,5.6,0,1,1,5.542-5.6A5.572,5.572,0,0,1,3256.157,202.212Z" fill="#8174f2"/><path d="M3239.94,201.823a.2.2,0,0,0-.191-.158h-.668a.193.193,0,0,1-.186-.142,7.652,7.652,0,0,0-.722-1.761.2.2,0,0,1,.031-.237l.473-.478a.2.2,0,0,0,.025-.245,8.625,8.625,0,0,0-2.42-2.447.191.191,0,0,0-.242.026l-.473.478a.192.192,0,0,1-.234.03,7.561,7.561,0,0,0-1.742-.73.194.194,0,0,1-.141-.188v-.676a.2.2,0,0,0-.157-.192,8.422,8.422,0,0,0-1.708-.174,8.509,8.509,0,0,0-1.708.173.2.2,0,0,0-.156.193v.675a.193.193,0,0,1-.141.188,7.477,7.477,0,0,0-1.742.73.192.192,0,0,1-.234-.031l-.473-.478a.191.191,0,0,0-.242-.026,8.612,8.612,0,0,0-2.421,2.446.2.2,0,0,0,.025.245l.473.478a.2.2,0,0,1,.03.237,7.677,7.677,0,0,0-.722,1.76.193.193,0,0,1-.186.143h-.669a.2.2,0,0,0-.19.158,8.77,8.77,0,0,0,0,3.453.2.2,0,0,0,.191.159h.668a.193.193,0,0,1,.186.142,7.7,7.7,0,0,0,.722,1.761.2.2,0,0,1-.031.237l-.473.478a.2.2,0,0,0-.025.245,8.612,8.612,0,0,0,2.42,2.447.191.191,0,0,0,.242-.026l.473-.478a.193.193,0,0,1,.234-.03,7.561,7.561,0,0,0,1.742.73.194.194,0,0,1,.141.188v.676a.2.2,0,0,0,.157.192,8.494,8.494,0,0,0,3.416,0,.2.2,0,0,0,.156-.192v-.676a.193.193,0,0,1,.141-.188,7.476,7.476,0,0,0,1.742-.73.192.192,0,0,1,.234.031l.473.478a.191.191,0,0,0,.242.026,8.612,8.612,0,0,0,2.421-2.446.2.2,0,0,0-.025-.245l-.473-.478a.2.2,0,0,1-.03-.237,7.688,7.688,0,0,0,.722-1.76.193.193,0,0,1,.186-.143h.669a.2.2,0,0,0,.19-.158,8.77,8.77,0,0,0,0-3.453Zm-8.356,4.984a3.26,3.26,0,1,1,3.225-3.259A3.242,3.242,0,0,1,3231.584,206.807Z" transform="translate(0 -0.747)" fill="#ffd000"/><path d="M1.235-.5H22.906a1.736,1.736,0,0,1,1.735,1.735V43.957a1.736,1.736,0,0,1-1.735,1.735H1.235A1.736,1.736,0,0,1-.5,43.957V1.235A1.736,1.736,0,0,1,1.235-.5ZM22.906,44.691a.735.735,0,0,0,.735-.735V1.235A.735.735,0,0,0,22.906.5H1.235A.735.735,0,0,0,.5,1.235V43.957a.735.735,0,0,0,.735.735Z" transform="translate(3523.791 235.31) rotate(180)" fill="#0357ff"/><circle cx="0.654" cy="0.654" r="0.654" transform="translate(3511.094 232.535)" fill="#161616"/><rect width="22.106" height="36.762" transform="translate(3522.773 230.72) rotate(180)" fill="#ebebff"/><rect width="16.478" height="4.664" transform="translate(3503.088 198.264)" fill="#8174f2"/><rect width="10.111" height="5.24" transform="translate(3503.088 204.373)" fill="#00b7ff"/><rect width="17.265" height="15.202" transform="translate(3503.088 212.145)" fill="#ffd000"/><rect width="5.14" height="5.24" transform="translate(3514.747 204.373)" fill="#00b7ff"/><path d="M.334,15.3l-.668-.744L16.3-.372l.668.744Z" transform="translate(3503.476 212.411)" fill="#fff"/><path d="M3291.246,300.8h-1a18.067,18.067,0,0,1,18.082-18.081h22.046a17.082,17.082,0,0,0,17.081-17.082V217.5h1v48.139a18.067,18.067,0,0,1-18.081,18.082h-22.046a17.081,17.081,0,0,0-17.082,17.081Z" fill="#0357ff"/><path d="M3400.979,309.856h-19.868a14.679,14.679,0,0,1-14.679-14.679V220.548h1v74.629a13.679,13.679,0,0,0,13.679,13.679h19.868Z" fill="#0357ff"/><path d="M.5,116.093h-1V0h1Z" transform="translate(3357.444 221.542)" fill="#0357ff"/><path d="M3629.257,268.089h-57.839a16.335,16.335,0,0,1-16.335-16.335v-120.7a15.335,15.335,0,0,0-15.335-15.335h-46.19a16.335,16.335,0,0,1-16.335-16.335V75.031h1V99.382a15.335,15.335,0,0,0,15.335,15.335h46.19a16.335,16.335,0,0,1,16.335,16.335v120.7a15.335,15.335,0,0,0,15.335,15.335h57.839Z" fill="#0357ff"/><path d="M.5,94.567h-1V0h1Z" transform="translate(3358.002 75.031)" fill="#0357ff"/><rect width="67.31" height="43.256" transform="translate(3324.836 94.121)" fill="#ebebff"/><circle cx="0.632" cy="0.632" r="0.632" transform="translate(3334.172 96.319)" fill="#9f9cf9"/><circle cx="0.632" cy="0.632" r="0.632" transform="translate(3331.622 96.319)" fill="#9f9cf9"/><circle cx="0.632" cy="0.632" r="0.632" transform="translate(3329.072 96.319)" fill="#9f9cf9"/><path d="M67.349.5H0v-1H67.349Z" transform="translate(3324.797 99.854)"/><path d="M3366.258,125.395l-.707-.707,6.705-6.705-6.705-6.706.707-.707,7.412,7.414Z"/><path d="M3350.724,125.395l-7.413-7.413,7.413-7.414.707.707-6.706,6.706,6.706,6.705Z"/><path d="M3354.526,126.743l-.893-.45,8.6-17.073.893.45Z"/><circle cx="26.638" cy="26.638" r="26.638" transform="translate(3331.364 168.947)" fill="#2989fc"/><path d="M3435.583,196.58H3373.09v-1h62.493Z" fill="#0357ff"/><path d="M3342.225,196.58H3280.7v-1h61.525Z" fill="#0357ff"/><path d="M3368,207.488h-5.2V189.477h5.2a8.809,8.809,0,0,1,8.809,8.809h0v.394A8.809,8.809,0,0,1,3368,207.488Z" transform="translate(0.867 -2.391)" fill="#ffd000"/><path d="M3351.045,189.468h5.2v18.023h-5.2a8.81,8.81,0,0,1-8.847-8.772v-.443a8.809,8.809,0,0,1,8.81-8.809Z" transform="translate(-2.59 -2.395)" fill="#ffd000"/><path d="M3359.52,199.526h-7.006v-1h7.006Z" transform="translate(1.144 1.064)" fill="#fff"/><path d="M3359.52,193.644h-7.006v-1h7.006Z" transform="translate(1.144 -1.064)" fill="#fff"/></g></g></svg>