<svg xmlns="http://www.w3.org/2000/svg" xmlns:xlink="http://www.w3.org/1999/xlink" width="1640.027" height="5816.561" viewBox="0 0 1640.027 5816.561"><defs><clipPath id="a"><circle cx="12.376" cy="12.376" r="12.376" fill="none"/></clipPath></defs><g transform="translate(1685.1 62.361)"><g transform="translate(-1684.6 5351.7)"><path d="M-1391.96,5705.776l12.939,35.11h-81.329l12.938-35.11h104.142" transform="translate(1644.672 -5414.062)" fill="#2989fc"/><g transform="translate(0 227.42)"><path d="M-1611.178,5776.188l-.508-.008a73.9,73.9,0,0,1-28.595-6.186,74.75,74.75,0,0,1-12.471-6.94,75.36,75.36,0,0,1-10.862-9.114,75.3,75.3,0,0,1-8.959-10.994,74.669,74.669,0,0,1-6.764-12.581,73.948,73.948,0,0,1-5.764-28.749,73.941,73.941,0,0,1,5.764-28.748,74.641,74.641,0,0,1,6.764-12.581,75.272,75.272,0,0,1,8.959-10.994,75.3,75.3,0,0,1,10.862-9.114,74.753,74.753,0,0,1,12.471-6.941,73.912,73.912,0,0,1,28.595-6.186l.508-.008v1.529l-.492.008a72.385,72.385,0,0,0-28,6.061,73.183,73.183,0,0,0-12.214,6.8,73.826,73.826,0,0,0-10.639,8.928,73.773,73.773,0,0,0-8.776,10.769,73.131,73.131,0,0,0-6.624,12.322,72.419,72.419,0,0,0-5.644,28.155,73.36,73.36,0,0,0,1.616,15.327,72.711,72.711,0,0,0,4.615,14.21,73.027,73.027,0,0,0,7.266,12.747,72.893,72.893,0,0,0,9.568,10.936,73.58,73.58,0,0,0,22.217,14.333,72.344,72.344,0,0,0,26.618,5.481l.492.008Z" transform="translate(1684.6 -5627.554)" fill="#0357ff"/></g><path d="M0,0H234.925V131H0Z" transform="translate(70.003 142.57)" fill="#a7e9ff"/><path d="M45.09,2.309h-.005L-.005,2.2A2.2,2.2,0,0,1-2.2-.005,2.2,2.2,0,0,1,.005-2.2l45.09.11a2.2,2.2,0,0,1-.005,4.4Z" transform="translate(85.654 168.872)" fill="#7e77ea"/><g transform="translate(84.526 176.788)"><g transform="translate(0 61.053)"><rect width="26.049" height="26.904" fill="#00d5c7"/><rect width="26.049" height="26.904" transform="translate(33.551)" fill="#2b2bb2"/><g transform="translate(42.51 7.484)"><path d="M-1530.045,5661.273l9.642-5.968-9.642-5.968Z" transform="translate(1530.045 -5649.338)" fill="#ff6279"/></g></g><rect width="60.36" height="87.918" transform="translate(96.202 0.015)" fill="#dcecff"/><g transform="translate(0.066)"><path d="M-1492.986,5621.61l-88.664-.119-.034-55.537,88.665.119Z" transform="translate(1581.684 -5565.954)" fill="#eef5ff"/><path d="M-1577.627,5615.389l18.06-13.853a8.424,8.424,0,0,1,10.791.542l8.8,8.394,20.4-28.857a8.356,8.356,0,0,1,11.7-1.684q.159.119.312.244l16.893,14.144v30.906h-86.962Z" transform="translate(1584.963 -5566.147)" fill="#00d364"/><circle cx="8.765" cy="8.765" r="8.765" transform="translate(29.711 8.434)" fill="#ffd000"/></g></g><path d="M154.588.882,0,.5l0-1,154.589.382Z" transform="translate(240.813 259.508)" fill="#fff"/><path d="M138.034.5H0v-1H138.034Z" transform="translate(247.71 179.959)" fill="#fff"/><g transform="translate(358.596 159.744)"><path d="M-1230.834,5547.807a17.49,17.49,0,0,0-17.489,17.49,17.49,17.49,0,0,0,17.489,17.49h19.317v-34.98Z" transform="translate(1248.323 -5545.678)" fill="#2b2bb2"/><path d="M.5,39.236h-1V0h1Z" transform="translate(36.806)" fill="#fff"/><path d="M23.9.5H0v-1H23.9Z" transform="translate(36.806 26.512)" fill="#fff"/><path d="M23.9.5H0v-1H23.9Z" transform="translate(36.806 12.98)" fill="#fff"/></g><g transform="translate(395.402 240.272)"><path d="M-1186.054,5642.528a17.491,17.491,0,0,0-17.49,17.49,17.49,17.49,0,0,0,17.49,17.49h19.316v-34.98Z" transform="translate(1203.544 -5640.401)" fill="#ffd000"/><path d="M.5,39.236h-1V0h1Z" transform="translate(36.806)" fill="#fff"/><path d="M23.9.5H0v-1H23.9Z" transform="translate(36.806 26.512)" fill="#fff"/><path d="M23.9.5H0v-1H23.9Z" transform="translate(36.806 12.979)" fill="#fff"/></g><g transform="translate(72.579 355.929)"><path d="M-1578.809,5786.49a17.491,17.491,0,0,0-17.49,17.49,17.489,17.489,0,0,0,17.49,17.489h19.316V5786.49Z" transform="translate(1596.299 -5784.361)" fill="#2989fc"/><path d="M.5,39.236h-1V0h1Z" transform="translate(36.806)" fill="#0357ff"/><path d="M17.276.5H0v-1H17.276Z" transform="translate(36.807 26.513)" fill="#0357ff"/><path d="M17.276.5H0v-1H17.276Z" transform="translate(36.807 12.98)" fill="#0357ff"/></g><g transform="translate(223.668 155.808)"><g transform="translate(13.223)"><path d="M-1373.52,5540.429a22.872,22.872,0,0,1,22.872,22.872,22.873,22.873,0,0,1-22.872,22.874,22.873,22.873,0,0,1-22.873-22.874A22.872,22.872,0,0,1-1373.52,5540.429Z" transform="translate(1396.393 -5540.429)" fill="#2989fc"/><g transform="translate(7.996 7.995)"><g transform="translate(2.501 2.473)"><g clip-path="url(#a)"><g transform="translate(3.856 16.125)"><path d="M-1361.894,5581.3a8.518,8.518,0,0,0-8.518-8.519h0a8.517,8.517,0,0,0-8.518,8.517h0" transform="translate(1378.93 -5572.782)" fill="#2b2bb2"/></g></g><path d="M12.376-.5a12.876,12.876,0,0,1,9.1,21.981A12.876,12.876,0,1,1,3.271,3.271,12.792,12.792,0,0,1,12.376-.5Zm0,24.753a11.876,11.876,0,0,0,8.4-20.274,11.876,11.876,0,0,0-16.8,16.8A11.8,11.8,0,0,0,12.376,24.253Z" fill="#fff"/><circle cx="4.733" cy="4.733" r="4.733" transform="translate(7.644 6.661)" fill="#2b2bb2"/></g><path d="M-1386.165,5565.033h-1a15.276,15.276,0,0,1,4.5-10.873,15.277,15.277,0,0,1,10.873-4.5v1a14.284,14.284,0,0,0-10.166,4.211A14.284,14.284,0,0,0-1386.165,5565.033Z" transform="translate(1386.665 -5550.156)" fill="#fff"/><path d="M-1368.565,5583.634v-1a14.283,14.283,0,0,0,10.166-4.211,14.284,14.284,0,0,0,4.211-10.167h1a15.278,15.278,0,0,1-4.5,10.874A15.276,15.276,0,0,1-1368.565,5583.634Z" transform="translate(1383.442 -5553.378)" fill="#fff"/></g></g><g transform="translate(0 51.463)"><path d="M71.477.5H0v-1H71.477Z" transform="translate(0 2.502)" fill="#0357ff"/><g transform="translate(8.22)"><circle cx="2.144" cy="2.144" r="2.144" fill="#ffd000"/><path d="M1.787-.5A2.287,2.287,0,1,1-.5,1.787,2.29,2.29,0,0,1,1.787-.5Zm0,3.574A1.287,1.287,0,1,0,.5,1.787,1.288,1.288,0,0,0,1.787,3.074Z" transform="translate(0.357 0.357)" fill="#ffd000"/></g><path d="M71.477.5H0v-1H71.477Z" transform="translate(0 8.935)" fill="#0357ff"/><g transform="translate(43.244 6.433)"><circle cx="2.144" cy="2.144" r="2.144" fill="#ffd000"/><path d="M1.787-.5A2.287,2.287,0,1,1-.5,1.787,2.29,2.29,0,0,1,1.787-.5Zm0,3.574A1.287,1.287,0,1,0,.5,1.787,1.288,1.288,0,0,0,1.787,3.074Z" transform="translate(0.357 0.357)" fill="#ffd000"/></g><path d="M71.477.5H0v-1H71.477Z" transform="translate(0 15.368)" fill="#0357ff"/><g transform="translate(61.113 12.866)"><circle cx="2.144" cy="2.144" r="2.144" fill="#ffd000"/><path d="M1.787-.5A2.287,2.287,0,1,1-.5,1.787,2.29,2.29,0,0,1,1.787-.5Zm0,3.574A1.287,1.287,0,1,0,.5,1.787,1.288,1.288,0,0,0,1.787,3.074Z" transform="translate(0.357 0.358)" fill="#ffd000"/></g></g></g><ellipse cx="1.982" cy="2.032" rx="1.982" ry="2.032" transform="translate(83.866 151.88)" fill="#cdffca"/><ellipse cx="1.982" cy="2.032" rx="1.982" ry="2.032" transform="translate(91.885 151.88)" fill="#2989fc"/><ellipse cx="1.982" cy="2.032" rx="1.982" ry="2.032" transform="translate(99.905 151.88)" fill="#0051d3"/><path d="M-1332.533,5669.949h-130.872l-73.225-1.129a14.134,14.134,0,0,1-9.912-4.24,14.137,14.137,0,0,1-4.087-9.977V5512.475a11.234,11.234,0,0,1,11.221-11.222h207.471a11.149,11.149,0,0,1,7.935,3.287,11.148,11.148,0,0,1,3.287,7.935v145.658a11.738,11.738,0,0,1-3.461,8.356A11.739,11.739,0,0,1-1332.533,5669.949Zm-130.861-1h130.861a10.747,10.747,0,0,0,7.649-3.168,10.746,10.746,0,0,0,3.168-7.649V5512.474a10.233,10.233,0,0,0-10.221-10.221h-207.47a10.233,10.233,0,0,0-10.222,10.221V5654.6a13.142,13.142,0,0,0,3.8,9.275,13.138,13.138,0,0,0,9.215,3.942Z" transform="translate(1660.657 -5377.735)"/><path transform="translate(1639.527 -5375.198)"/><path d="M-1386.959,5405.435a30.279,30.279,0,0,0-30.668-30.276,30.179,30.179,0,0,0-29.889,30.276,30.252,30.252,0,0,0,13.973,25.518,5.452,5.452,0,0,1,2.542,4.581v13.279a8.944,8.944,0,0,0,8.944,8.944h9.637a8.946,8.946,0,0,0,8.945-8.944v-13.221a5.478,5.478,0,0,1,2.513-4.62A30.257,30.257,0,0,0-1386.959,5405.435Z" transform="translate(1642.387 -5364.096)" fill="#ffd000"/><g transform="translate(183.921 0)"><path d="M-1460.337,5402.989h-1a41.526,41.526,0,0,1,3.284-16.266,41.655,41.655,0,0,1,8.956-13.283,41.658,41.658,0,0,1,13.283-8.956,41.529,41.529,0,0,1,16.266-3.284v1a40.54,40.54,0,0,0-15.877,3.205,40.656,40.656,0,0,0-12.966,8.742,40.655,40.655,0,0,0-8.742,12.965A40.53,40.53,0,0,0-1460.337,5402.989Z" transform="translate(1460.837 -5361.7)" fill="#fff"/><path d="M-1410.6,5453.724v-1a40.541,40.541,0,0,0,15.877-3.205,40.655,40.655,0,0,0,12.966-8.742,40.651,40.651,0,0,0,8.742-12.966,40.533,40.533,0,0,0,3.205-15.877h1a41.529,41.529,0,0,1-3.284,16.267,41.646,41.646,0,0,1-8.956,13.283,41.652,41.652,0,0,1-13.283,8.956A41.53,41.53,0,0,1-1410.6,5453.724Z" transform="translate(1451.893 -5370.644)" fill="#fff"/><path d="M-1413.405,5415.981l-14.911-14.911,1.414-1.414,13.5,13.5,35.789-35.789,1.414,1.414Z" transform="translate(1454.921 -5364.615)"/></g><path transform="translate(1629.857 -5414.062)"/><g transform="translate(133.058 349.04)"><path d="M-1492.784,5837.9h-15.423v-12.268h1V5836.9h13.423v-11.268h1Z" transform="translate(1512.033 -5784.443)"/><path d="M-1492.784,5787.289h-1v-11.268h-13.423v11.268h-1v-12.268h15.423Z" transform="translate(1512.033 -5775.521)"/><path d="M-1508.643,5789.838h14.423a4.371,4.371,0,0,1,4.327,4.414v20.6a4.371,4.371,0,0,1-4.327,4.413h-14.423a4.37,4.37,0,0,1-4.327-4.413v-20.6A4.37,4.37,0,0,1-1508.643,5789.838Z" transform="translate(1512.97 -5778.069)" fill="#00d5c7"/></g><path d="M-1501.191,5812.025l-4.535-4.626,1.428-1.4,3.108,3.171,7-7.129,1.427,1.4Z" transform="translate(1644.612 -5431.327)"/><path d="M-1627.55,5650.666h-1v-52.9a9.516,9.516,0,0,1,9.505-9.5h14.516v1h-14.516a8.514,8.514,0,0,0-8.505,8.5Z" transform="translate(1674.531 -5393.226)" fill="#0357ff"/><path d="M-1630.039,5662.927l-9.523-8.75.677-.736,8.846,8.128,8.835-8.127.677.736Z" transform="translate(1676.521 -5404.809)" fill="#0357ff"/><path d="M.5,33.754h-1V0h1Z" transform="translate(224.985 108.816)" fill="#fff"/><path d="M-1404.025,5491.185l-8.847-8.127-8.835,8.126-.677-.736,9.511-8.749,9.524,8.75Z" transform="translate(1637.851 -5374.285)" fill="#fff"/><path d="M-1453.655,5719.1h-145.778v-1h145.778a7.939,7.939,0,0,0,7.93-7.93v-26.463h1v26.463A8.94,8.94,0,0,1-1453.655,5719.1Z" transform="translate(1669.436 -5410.131)" fill="#0357ff"/><path d="M-1591.363,5733.686l-8.749-9.512.311-.338,8.439-9.185.736.677-8.128,8.847,8.127,8.835Z" transform="translate(1669.436 -5415.702)" fill="#0357ff"/><path d="M-1609.275,5711.814a21.662,21.662,0,0,0,0-11.561h-4.543a17.066,17.066,0,0,0-.7-1.7l3.209-3.209a21.785,21.785,0,0,0-8.176-8.175l-3.209,3.209a17.448,17.448,0,0,0-1.7-.7v-4.541a21.657,21.657,0,0,0-11.562,0v4.541a17.322,17.322,0,0,0-1.7.7l-3.209-3.209a21.774,21.774,0,0,0-8.176,8.175l3.209,3.209a17.076,17.076,0,0,0-.7,1.7h-4.54a21.643,21.643,0,0,0,0,11.562h4.541a17.207,17.207,0,0,0,.7,1.7l-3.209,3.208a21.787,21.787,0,0,0,8.176,8.177l3.209-3.209a17.424,17.424,0,0,0,1.7.7v4.541a21.658,21.658,0,0,0,11.563,0v-4.542a17.7,17.7,0,0,0,1.7-.7l3.209,3.209a21.781,21.781,0,0,0,8.176-8.176l-3.209-3.21a17,17,0,0,0,.7-1.7Zm-20.894,2.382a8.163,8.163,0,0,1-8.162-8.163,8.161,8.161,0,0,1,8.162-8.161,8.161,8.161,0,0,1,8.161,8.161A8.162,8.162,0,0,1-1630.169,5714.2Z" transform="translate(1674.697 -5414.32)" fill="#90ef8e"/><g transform="translate(419.407 159.199)"><rect width="18.83" height="35.924" transform="translate(18.83 38.596) rotate(180)" fill="#a7e9ff"/><path d="M.956-.5H21.222A1.458,1.458,0,0,1,22.678.956V40.561a1.458,1.458,0,0,1-1.456,1.456H.956A1.458,1.458,0,0,1-.5,40.561V.956A1.458,1.458,0,0,1,.956-.5ZM21.222,41.017a.456.456,0,0,0,.456-.456V.956A.456.456,0,0,0,21.222.5H.956A.456.456,0,0,0,.5.956V40.561a.456.456,0,0,0,.456.456Z" transform="translate(27.626 41.517) rotate(180)"/></g><circle cx="14.627" cy="14.627" r="14.627" transform="translate(324.815 245.278)" fill="#a7e9ff"/><g transform="translate(456.032 205.418)"><g transform="translate(0)"><rect width="77.298" height="57.546" transform="translate(0 81.496) rotate(-90)" fill="#90ef8e"/><path d="M2.785-.5A3.282,3.282,0,1,1-.5,2.782,3.287,3.287,0,0,1,2.785-.5Zm0,5.563A2.282,2.282,0,1,0,.5,2.782,2.286,2.286,0,0,0,2.785,5.063Z" transform="translate(39.341 82.998)"/><g transform="translate(9.945)"><path d="M-1113.9,5600.286h56.792a4.287,4.287,0,0,1,4.285,4.278v84.192a4.287,4.287,0,0,1-4.285,4.279H-1113.9a4.287,4.287,0,0,1-4.285-4.279v-84.192A4.287,4.287,0,0,1-1113.9,5600.286Zm56.792,91.75a3.286,3.286,0,0,0,3.285-3.279v-84.192a3.285,3.285,0,0,0-3.285-3.278H-1113.9a3.285,3.285,0,0,0-3.285,3.278v84.192a3.286,3.286,0,0,0,3.285,3.279Z" transform="translate(1117.681 -5600.786)"/></g></g></g></g><path d="M-1272.121,5673.877l-.925-.381,3.74-9.083-7.39,2.808,4.088-11.655.944.331-3.376,9.626,7.539-2.864Z" transform="translate(-72.776 -53.45)"/></g></svg>